<?xml version="1.0" encoding="utf-8"?>
<!-- Generator: Adobe Illustrator 27.0.0, SVG Export Plug-In . SVG Version: 6.00 Build 0)  -->
<svg version="1.1" id="Layer_1" xmlns="http://www.w3.org/2000/svg" xmlns:xlink="http://www.w3.org/1999/xlink" x="0px" y="0px"
	 viewBox="0 0 329.88 150.52" style="enable-background:new 0 0 329.88 150.52;" xml:space="preserve">
<style type="text/css">
	.st0{fill:#FFFFFF;}
</style>
<g>
	<path class="st0" d="M144.5,19.66v5.08h-11.08v32.09h-5.54V24.74h-11.01v-5.08H144.5z"/>
	<path class="st0" d="M172.75,42.37v14.39h-5.31V42.67c0-4.08-2.46-6.54-5.7-6.54c-3.31,0-7.31,1.92-7.31,7.08v13.55h-5.31V17.89
		h5.31v17.55c1.46-3.08,5.46-4.46,8.16-4.46C168.98,30.98,172.75,35.21,172.75,42.37z"/>
	<path class="st0" d="M204.15,46.29h-20.01c0.69,4.08,3.69,6.23,7.77,6.23c3,0,5.7-1.39,7.08-3.69l4.23,2.08
		c-2.23,4.23-6.77,6.46-11.54,6.46c-7.31,0-13.01-5.31-13.01-13.31s5.85-13.16,13.01-13.16s12.62,5.16,12.62,13.08
		C204.3,44.75,204.23,45.52,204.15,46.29z M198.99,42.06c-0.54-3.93-3.39-6.23-7.31-6.23c-3.93,0-6.77,2-7.54,6.23H198.99z"/>
	<path class="st0" d="M9.25,114.91V59.93h10.56v23.74c0.87-1.63,2.18-2.83,4.14-3.81c1.96-0.87,4.03-1.42,6.31-1.42
		s4.46,0.44,6.53,1.31c2.07,0.87,3.92,2.18,5.44,3.7s2.83,3.59,3.81,5.88c0.98,2.4,1.42,4.9,1.42,7.73c0,2.72-0.44,5.23-1.42,7.62
		c-0.98,2.29-2.18,4.25-3.81,5.88c-1.52,1.52-3.38,2.83-5.44,3.7c-2.07,0.87-4.25,1.31-6.53,1.31s-4.36-0.44-6.21-1.42
		c-1.96-0.87-3.27-2.18-4.14-3.81v4.46H9.25V114.91z M20.03,97.06c0,2.5,0.76,4.57,2.4,6.1c1.63,1.63,3.59,2.4,5.77,2.4
		c2.29,0,4.25-0.76,5.88-2.4s2.4-3.59,2.4-6.21c0-2.5-0.76-4.57-2.4-6.1s-3.48-2.4-5.88-2.4c-2.29,0-4.25,0.76-5.77,2.29
		S20.03,94.55,20.03,97.06z"/>
	<path class="st0" d="M55.09,114.91V59.93h10.56v54.98H55.09z"/>
	<path class="st0" d="M75.01,100.65V79.31h10.56v19.16c0,1.31,0.22,2.5,0.65,3.48s0.98,1.74,1.63,2.18
		c0.65,0.44,1.31,0.87,2.07,1.09c0.65,0.22,1.31,0.33,2.07,0.33c1.85,0,3.38-0.54,4.57-1.74c1.2-1.2,1.85-3.05,1.85-5.55V79.31
		h10.56v35.6H98.42v-4.79c-0.87,1.74-2.29,3.05-4.03,4.03c-1.74,0.98-3.48,1.52-5.33,1.52c-4.14,0-7.51-1.31-10.13-3.92
		C76.32,109.25,75.01,105.44,75.01,100.65z"/>
	<path class="st0" d="M119.11,106.86c-1.63-2.83-2.5-6.1-2.5-9.69c0-3.59,0.87-6.86,2.5-9.69c1.63-2.83,3.92-5.01,6.75-6.53
		c2.83-1.52,5.88-2.29,9.36-2.29c2.5,0,4.9,0.44,7.08,1.42c2.29,0.87,4.14,2.18,5.77,3.81s2.94,3.59,3.92,5.99
		c0.98,2.4,1.42,4.9,1.42,7.62c0,0.98,0,2.07-0.11,3.27h-26.13c0.22,1.96,1.2,3.38,3.05,4.46c1.74,1.09,3.7,1.52,5.77,1.52
		c1.52,0,3.05-0.33,4.46-0.87c1.42-0.54,2.5-1.42,3.38-2.5l7.73,5.23c-1.63,2.5-3.92,4.25-6.86,5.44c-2.94,1.2-6.1,1.74-9.36,1.74
		c-3.38,0-6.53-0.76-9.36-2.29C123.13,111.97,120.74,109.69,119.11,106.86z M127.27,94.01h15.46c-0.22-1.96-1.09-3.38-2.61-4.36
		c-1.52-0.98-3.16-1.52-4.9-1.52c-1.74,0-3.38,0.44-4.9,1.42C128.69,90.53,127.71,91.94,127.27,94.01z"/>
	<path class="st0" d="M160.59,132.33V79.31h10.56v4.36c0.87-1.63,2.29-2.83,4.14-3.81c1.96-0.87,4.03-1.42,6.21-1.42
		c2.29,0,4.46,0.44,6.53,1.31c2.07,0.87,3.92,2.07,5.44,3.7c1.52,1.52,2.83,3.48,3.81,5.88c0.98,2.29,1.42,4.9,1.42,7.62
		c0,2.83-0.44,5.33-1.42,7.73c-0.98,2.4-2.18,4.36-3.81,5.88c-1.52,1.63-3.38,2.83-5.44,3.7c-2.07,0.87-4.25,1.31-6.53,1.31
		c-2.29,0-4.36-0.44-6.31-1.42c-1.96-0.87-3.27-2.18-4.14-3.81v21.88h-10.45V132.33z M171.37,97.17c0,2.5,0.76,4.57,2.4,6.1
		c1.63,1.52,3.59,2.29,5.77,2.29c2.29,0,4.25-0.76,5.88-2.29c1.63-1.52,2.4-3.59,2.4-6.1s-0.76-4.57-2.4-6.21
		c-1.63-1.63-3.48-2.4-5.88-2.4c-2.29,0-4.25,0.76-5.77,2.4C172.13,92.7,171.37,94.77,171.37,97.17z"/>
	<path class="st0" d="M206.43,114.91v-35.6h10.56v8.49c0.87-3.05,2.18-5.33,4.14-6.97c1.96-1.52,3.92-2.4,5.88-2.4
		c2.4,0,4.46,0.44,6.1,1.31l-1.85,9.47c-1.42-0.76-3.27-1.09-5.44-1.09c-3.05,0-5.23,1.2-6.64,3.59c-1.42,2.4-2.18,5.88-2.18,10.67
		v12.41h-10.56V114.91z"/>
	<path class="st0" d="M239.31,70.6c-1.31-1.2-1.96-2.72-1.96-4.46c0-1.74,0.65-3.16,1.96-4.36c1.31-1.2,2.83-1.74,4.68-1.74
		c1.74,0,3.27,0.54,4.57,1.74c1.31,1.2,1.85,2.61,1.85,4.36c0,1.74-0.65,3.27-1.85,4.46c-1.31,1.2-2.83,1.85-4.57,1.85
		C242.14,72.34,240.61,71.8,239.31,70.6z M238.65,114.91v-35.6h10.56v35.6H238.65z"/>
	<path class="st0" d="M258.9,114.91v-35.6h10.56v5.23c0.98-1.85,2.4-3.27,4.25-4.36c1.85-1.09,3.92-1.63,5.99-1.63
		c4.14,0,7.29,1.31,9.58,3.81c2.29,2.5,3.48,6.31,3.48,11.32v21.23H282.2V96.08c0-2.29-0.54-4.03-1.74-5.23
		c-1.09-1.2-2.61-1.85-4.46-1.85c-4.36,0-6.53,2.4-6.53,7.19v18.73H258.9z"/>
	<path class="st0" d="M299.08,87.7v-8.38h6.42V65.7h10.56v13.61h7.51v8.38h-7.51v27.22H305.5V87.7H299.08z"/>
</g>
</svg>
