<?xml version="1.0" encoding="utf-8"?>
<!-- Generator: Adobe Illustrator 27.0.0, SVG Export Plug-In . SVG Version: 6.00 Build 0)  -->
<svg version="1.1" id="Layer_1" xmlns="http://www.w3.org/2000/svg" xmlns:xlink="http://www.w3.org/1999/xlink" x="0px" y="0px"
	 viewBox="0 0 365 287" style="enable-background:new 0 0 365 287;" xml:space="preserve">
<style type="text/css">
	.st0{fill:#FFFFFF;}
</style>
<g>
	<path class="st0" d="M210.95,247.46h-41.09V228.5h56.89v-31.61H30.79c-3.48,0-6.32-2.84-6.32-6.32V38.86
		c0-3.48,2.84-6.32,6.32-6.32h195.96V13.57H30.79C16.82,13.57,5.5,24.89,5.5,38.86v164.36c0,13.96,11.32,25.29,25.29,25.29h101.14
		v18.96H90.84c-5.24,0-9.48,4.25-9.48,9.48c0,5.24,4.25,9.48,9.48,9.48h120.11c5.24,0,9.48-4.25,9.48-9.48
		C220.43,251.71,216.18,247.46,210.95,247.46z"/>
	<path class="st0" d="M334.21,13.57H271c-13.96,0-25.29,11.32-25.29,25.29v202.29c0,13.96,11.32,25.29,25.29,25.29h63.21
		c13.96,0,25.29-11.32,25.29-25.29V38.86C359.5,24.89,348.18,13.57,334.21,13.57z M302.61,133.68c-6.98,0-12.64-5.66-12.64-12.64
		c0-6.98,5.66-12.64,12.64-12.64c6.98,0,12.64,5.66,12.64,12.64C315.25,128.02,309.59,133.68,302.61,133.68z M324.73,70.46h-44.25
		c-5.23,0-9.48-4.25-9.48-9.48s4.25-9.48,9.48-9.48h44.25c5.23,0,9.48,4.25,9.48,9.48S329.97,70.46,324.73,70.46z"/>
</g>
</svg>
